<mxfile host="app.diagrams.net" modified="2022-11-28T09:57:43.989Z" agent="5.0 (Windows NT 10.0; Win64; x64) AppleWebKit/537.36 (KHTML, like Gecko) Chrome/107.0.0.0 Safari/537.36" version="20.6.0" etag="O4uK6yDgBxrsbryCHzXa" type="github">
  <diagram id="e4hHuJ-54vjYfhkMVgoX" name="第 1 页">
    <mxGraphModel dx="1422" dy="1963" grid="1" gridSize="10" guides="1" tooltips="1" connect="1" arrows="1" fold="1" page="1" pageScale="1" pageWidth="827" pageHeight="1169" math="0" shadow="0">
      <root>
        <mxCell id="0" />
        <mxCell id="1" parent="0" />
        <mxCell id="p51XQmS9mh3FHobpT9FH-1" value="" style="aspect=fixed;perimeter=ellipsePerimeter;html=1;align=center;shadow=0;dashed=0;spacingTop=3;image;image=img/lib/active_directory/laptop_client.svg;" vertex="1" parent="1">
          <mxGeometry x="430" y="-10" width="45" height="50" as="geometry" />
        </mxCell>
        <mxCell id="p51XQmS9mh3FHobpT9FH-2" value="" style="aspect=fixed;perimeter=ellipsePerimeter;html=1;align=center;shadow=0;dashed=0;spacingTop=3;image;image=img/lib/active_directory/web_server.svg;" vertex="1" parent="1">
          <mxGeometry x="540" y="500" width="40" height="50" as="geometry" />
        </mxCell>
        <mxCell id="p51XQmS9mh3FHobpT9FH-4" value="" style="endArrow=classic;html=1;rounded=0;" edge="1" parent="1">
          <mxGeometry relative="1" as="geometry">
            <mxPoint x="100" y="160" as="sourcePoint" />
            <mxPoint x="100" y="380" as="targetPoint" />
          </mxGeometry>
        </mxCell>
        <mxCell id="p51XQmS9mh3FHobpT9FH-5" value="1请求连接" style="edgeLabel;resizable=0;html=1;align=center;verticalAlign=middle;" connectable="0" vertex="1" parent="p51XQmS9mh3FHobpT9FH-4">
          <mxGeometry relative="1" as="geometry" />
        </mxCell>
        <mxCell id="p51XQmS9mh3FHobpT9FH-10" value="" style="endArrow=classic;html=1;rounded=0;" edge="1" parent="1">
          <mxGeometry relative="1" as="geometry">
            <mxPoint x="160" y="380" as="sourcePoint" />
            <mxPoint x="160" y="160" as="targetPoint" />
          </mxGeometry>
        </mxCell>
        <mxCell id="p51XQmS9mh3FHobpT9FH-11" value="2.准备连接" style="edgeLabel;resizable=0;html=1;align=center;verticalAlign=middle;" connectable="0" vertex="1" parent="p51XQmS9mh3FHobpT9FH-10">
          <mxGeometry relative="1" as="geometry" />
        </mxCell>
        <mxCell id="p51XQmS9mh3FHobpT9FH-12" value="" style="endArrow=classic;html=1;rounded=0;" edge="1" parent="1">
          <mxGeometry relative="1" as="geometry">
            <mxPoint x="220" y="160" as="sourcePoint" />
            <mxPoint x="220" y="380" as="targetPoint" />
          </mxGeometry>
        </mxCell>
        <mxCell id="p51XQmS9mh3FHobpT9FH-13" value="3.连接成功" style="edgeLabel;resizable=0;html=1;align=center;verticalAlign=middle;" connectable="0" vertex="1" parent="p51XQmS9mh3FHobpT9FH-12">
          <mxGeometry relative="1" as="geometry" />
        </mxCell>
        <mxCell id="p51XQmS9mh3FHobpT9FH-14" value="" style="endArrow=classic;html=1;rounded=0;fillColor=#d5e8d4;strokeColor=#82b366;" edge="1" parent="1">
          <mxGeometry relative="1" as="geometry">
            <mxPoint x="310" y="160" as="sourcePoint" />
            <mxPoint x="310" y="380" as="targetPoint" />
          </mxGeometry>
        </mxCell>
        <mxCell id="p51XQmS9mh3FHobpT9FH-15" value="4.发送数据" style="edgeLabel;resizable=0;html=1;align=center;verticalAlign=middle;" connectable="0" vertex="1" parent="p51XQmS9mh3FHobpT9FH-14">
          <mxGeometry relative="1" as="geometry" />
        </mxCell>
        <mxCell id="p51XQmS9mh3FHobpT9FH-16" value="" style="endArrow=classic;html=1;rounded=0;fillColor=#d5e8d4;strokeColor=#82b366;" edge="1" parent="1">
          <mxGeometry relative="1" as="geometry">
            <mxPoint x="470" y="380" as="sourcePoint" />
            <mxPoint x="470" y="160" as="targetPoint" />
          </mxGeometry>
        </mxCell>
        <mxCell id="p51XQmS9mh3FHobpT9FH-17" value="5.接受成功" style="edgeLabel;resizable=0;html=1;align=center;verticalAlign=middle;" connectable="0" vertex="1" parent="p51XQmS9mh3FHobpT9FH-16">
          <mxGeometry relative="1" as="geometry" />
        </mxCell>
        <mxCell id="p51XQmS9mh3FHobpT9FH-18" value="" style="endArrow=classic;html=1;rounded=0;fillColor=#e1d5e7;strokeColor=#9673a6;" edge="1" parent="1">
          <mxGeometry relative="1" as="geometry">
            <mxPoint x="620" y="380" as="sourcePoint" />
            <mxPoint x="620" y="160" as="targetPoint" />
          </mxGeometry>
        </mxCell>
        <mxCell id="p51XQmS9mh3FHobpT9FH-19" value="6.发送数据" style="edgeLabel;resizable=0;html=1;align=center;verticalAlign=middle;" connectable="0" vertex="1" parent="p51XQmS9mh3FHobpT9FH-18">
          <mxGeometry relative="1" as="geometry" />
        </mxCell>
        <mxCell id="p51XQmS9mh3FHobpT9FH-20" value="" style="endArrow=classic;html=1;rounded=0;fillColor=#e1d5e7;strokeColor=#9673a6;" edge="1" parent="1">
          <mxGeometry relative="1" as="geometry">
            <mxPoint x="780" y="160" as="sourcePoint" />
            <mxPoint x="780" y="380" as="targetPoint" />
          </mxGeometry>
        </mxCell>
        <mxCell id="p51XQmS9mh3FHobpT9FH-21" value="7.接受成功" style="edgeLabel;resizable=0;html=1;align=center;verticalAlign=middle;" connectable="0" vertex="1" parent="p51XQmS9mh3FHobpT9FH-20">
          <mxGeometry relative="1" as="geometry" />
        </mxCell>
        <mxCell id="p51XQmS9mh3FHobpT9FH-22" value="..... 可多次" style="text;html=1;align=center;verticalAlign=middle;resizable=0;points=[];autosize=1;strokeColor=none;fillColor=none;fontStyle=1" vertex="1" parent="1">
          <mxGeometry x="830" y="255" width="80" height="30" as="geometry" />
        </mxCell>
        <mxCell id="p51XQmS9mh3FHobpT9FH-23" value="..... 可多次" style="text;html=1;align=center;verticalAlign=middle;resizable=0;points=[];autosize=1;strokeColor=none;fillColor=none;fontStyle=1" vertex="1" parent="1">
          <mxGeometry x="504" y="255" width="80" height="30" as="geometry" />
        </mxCell>
        <mxCell id="p51XQmS9mh3FHobpT9FH-24" value="" style="rounded=0;whiteSpace=wrap;html=1;fillColor=#fff2cc;strokeColor=#d6b656;" vertex="1" parent="1">
          <mxGeometry x="300" y="390" width="190" height="90" as="geometry" />
        </mxCell>
        <mxCell id="p51XQmS9mh3FHobpT9FH-25" value="tcp缓存" style="rounded=0;whiteSpace=wrap;html=1;fillColor=#dae8fc;strokeColor=#6c8ebf;" vertex="1" parent="1">
          <mxGeometry x="310" y="400" width="160" height="40" as="geometry" />
        </mxCell>
        <mxCell id="p51XQmS9mh3FHobpT9FH-27" value="nio缓存" style="text;html=1;align=center;verticalAlign=middle;resizable=0;points=[];autosize=1;strokeColor=none;fillColor=none;" vertex="1" parent="1">
          <mxGeometry x="356" y="450" width="60" height="30" as="geometry" />
        </mxCell>
        <mxCell id="p51XQmS9mh3FHobpT9FH-30" value="" style="endArrow=classic;html=1;rounded=0;fillColor=#d5e8d4;strokeColor=#82b366;movable=1;resizable=1;rotatable=1;deletable=1;editable=1;connectable=1;dashed=1;" edge="1" parent="1">
          <mxGeometry relative="1" as="geometry">
            <mxPoint x="391" y="380" as="sourcePoint" />
            <mxPoint x="391" y="160" as="targetPoint" />
          </mxGeometry>
        </mxCell>
        <mxCell id="p51XQmS9mh3FHobpT9FH-31" value="5.tcp缓存已满" style="edgeLabel;resizable=0;html=1;align=center;verticalAlign=middle;" connectable="0" vertex="1" parent="p51XQmS9mh3FHobpT9FH-30">
          <mxGeometry relative="1" as="geometry" />
        </mxCell>
        <mxCell id="p51XQmS9mh3FHobpT9FH-33" value="" style="rounded=0;whiteSpace=wrap;html=1;fillColor=#fff2cc;strokeColor=#d6b656;" vertex="1" parent="1">
          <mxGeometry x="610" y="395" width="200" height="80" as="geometry" />
        </mxCell>
        <mxCell id="p51XQmS9mh3FHobpT9FH-34" value="tcp缓存" style="rounded=0;whiteSpace=wrap;html=1;fillColor=#dae8fc;strokeColor=#6c8ebf;" vertex="1" parent="1">
          <mxGeometry x="630" y="410" width="150" height="40" as="geometry" />
        </mxCell>
        <mxCell id="p51XQmS9mh3FHobpT9FH-35" value="nio缓存" style="text;html=1;align=center;verticalAlign=middle;resizable=0;points=[];autosize=1;strokeColor=none;fillColor=none;" vertex="1" parent="1">
          <mxGeometry x="675" y="450" width="60" height="30" as="geometry" />
        </mxCell>
        <mxCell id="p51XQmS9mh3FHobpT9FH-36" value="" style="endArrow=classic;html=1;rounded=0;fillColor=#d5e8d4;strokeColor=#82b366;movable=1;resizable=1;rotatable=1;deletable=1;editable=1;connectable=1;dashed=1;" edge="1" parent="1">
          <mxGeometry relative="1" as="geometry">
            <mxPoint x="700" y="380" as="sourcePoint" />
            <mxPoint x="700" y="160" as="targetPoint" />
          </mxGeometry>
        </mxCell>
        <mxCell id="p51XQmS9mh3FHobpT9FH-37" value="5.tcp缓存已满" style="edgeLabel;resizable=0;html=1;align=center;verticalAlign=middle;" connectable="0" vertex="1" parent="p51XQmS9mh3FHobpT9FH-36">
          <mxGeometry relative="1" as="geometry" />
        </mxCell>
        <mxCell id="p51XQmS9mh3FHobpT9FH-38" value="" style="swimlane;startSize=0;fillStyle=auto;strokeWidth=3;rounded=0;dashed=1;fillColor=#e1d5e7;strokeColor=#9673a6;" vertex="1" parent="1">
          <mxGeometry x="50" y="100" width="200" height="290" as="geometry" />
        </mxCell>
        <mxCell id="p51XQmS9mh3FHobpT9FH-39" value="创建连接流程" style="text;html=1;align=center;verticalAlign=middle;resizable=0;points=[];autosize=1;strokeColor=none;fillColor=none;" vertex="1" parent="p51XQmS9mh3FHobpT9FH-38">
          <mxGeometry x="50" y="10" width="100" height="30" as="geometry" />
        </mxCell>
        <mxCell id="p51XQmS9mh3FHobpT9FH-40" value="" style="swimlane;startSize=0;fillStyle=auto;strokeWidth=3;rounded=0;dashed=1;fillColor=#dae8fc;strokeColor=#6c8ebf;" vertex="1" parent="1">
          <mxGeometry x="290" y="100" width="290" height="280" as="geometry" />
        </mxCell>
        <mxCell id="p51XQmS9mh3FHobpT9FH-41" value="客户端发送数据流程" style="text;html=1;align=center;verticalAlign=middle;resizable=0;points=[];autosize=1;strokeColor=none;fillColor=none;" vertex="1" parent="p51XQmS9mh3FHobpT9FH-40">
          <mxGeometry x="35" y="10" width="130" height="30" as="geometry" />
        </mxCell>
        <mxCell id="p51XQmS9mh3FHobpT9FH-42" value="" style="swimlane;startSize=0;fillStyle=auto;strokeWidth=3;rounded=0;dashed=1;fillColor=#d5e8d4;strokeColor=#82b366;" vertex="1" parent="1">
          <mxGeometry x="590" y="100" width="320" height="290" as="geometry" />
        </mxCell>
        <mxCell id="p51XQmS9mh3FHobpT9FH-43" value="服务端发送数据流程" style="text;html=1;align=center;verticalAlign=middle;resizable=0;points=[];autosize=1;strokeColor=none;fillColor=none;" vertex="1" parent="p51XQmS9mh3FHobpT9FH-42">
          <mxGeometry x="35" y="10" width="130" height="30" as="geometry" />
        </mxCell>
        <mxCell id="p51XQmS9mh3FHobpT9FH-47" value="" style="swimlane;startSize=0;" vertex="1" parent="1">
          <mxGeometry x="40" y="630" width="1080" height="690" as="geometry" />
        </mxCell>
        <mxCell id="p51XQmS9mh3FHobpT9FH-48" value="&lt;b style=&quot;font-size: 18px;&quot;&gt;NIO&lt;/b&gt;" style="text;html=1;align=center;verticalAlign=middle;resizable=0;points=[];autosize=1;strokeColor=none;fillColor=none;fontSize=18;" vertex="1" parent="p51XQmS9mh3FHobpT9FH-47">
          <mxGeometry x="10" y="15" width="60" height="40" as="geometry" />
        </mxCell>
      </root>
    </mxGraphModel>
  </diagram>
</mxfile>
